<svg version="1" xmlns="http://www.w3.org/2000/svg" width="27" height="27" viewBox="0 0 700.000000 700.000000">
    <path d="M236.9.4c-.2.2-4.1.6-8.7 1-4.5.3-9.2.8-10.5 1.1-1.2.2-3.5.6-5.2.9-18 2.6-42.7 10-61.5 18.3C93.2 47.5 47.2 93.6 21.8 151c-6.5 14.8-13.4 35-15.2 45-.2 1.4-.9 4.5-1.5 7-1.8 8.1-2.1 10.2-3.8 25.5-.5 3.8-.8 66.4-.8 139 0 137.5 0 137.3 4 154.3.3 1.2.7 3.1 1 4.2 4.3 19.6 14.5 44.7 25.4 62.5 14.5 23.5 32 42.6 54.6 59.7 37 27.8 80.1 42.1 126.5 42.1 14.4.1 36.2-1.9 44.5-3.9.6-.1 2.1-.4 3.5-.7 21.5-4.3 51-15.3 68.5-25.5 1.7-1 5.3-3.1 8-4.7 2.8-1.6 6.1-3.7 7.5-4.7 9.3-6.8 19.9-14.7 21.9-16.3 3.3-2.7 24.8-24.1 28.6-28.5 5.7-6.7 18-20.5 19.1-21.5.6-.6 4.6-5.1 8.9-10 4.4-5 8.1-9.2 8.4-9.5.3-.3 3.7-4.1 7.6-8.5 3.8-4.4 7.2-8.2 7.5-8.5.3-.3 3.9-4.3 8-9s7.7-8.7 8-9c.3-.3 4.1-4.6 8.5-9.5 4.4-5 8.2-9.2 8.5-9.5.3-.3 9.3-10.4 20-22.5s19.9-22.5 20.5-23.1c.5-.6 3.9-4.3 7.5-8.4 3.6-4 7.6-8.5 9-10 1.4-1.5 5-5.5 8-9s6.6-7.5 8-9c1.4-1.5 3.9-4.3 5.5-6.1 1.7-1.9 6.8-7.7 11.5-12.9 4.7-5.3 11.4-12.9 15-16.9 7.3-8.4 9.1-10.3 14-15.8 1.9-2.1 6.9-7.6 11-12.3 4.1-4.7 9.1-10.3 11.1-12.5 35-38.6 44-50.3 55.2-71.5 9.5-18.1 17.4-43.5 19.3-62.5.3-2.2.7-5.8.9-8 .5-4.6.6-26.5.1-31-.2-1.7-.7-5.7-1-9-1.5-13.2-6.2-31.9-11.5-45.6-10.5-27-24.3-48.1-45-69-17.5-17.6-35-29.6-58.1-39.9-6.1-2.7-11.3-4.9-11.5-4.9-.3 0-3.4-.8-6.8-1.9-7.2-2.3-13-3.9-17.1-4.6-1.6-.3-5.2-1-8-1.5-2.8-.6-6.9-1.4-9.1-1.7-4.2-.7-289.8-1.7-290.6-1zm304.6 115.1c26.6 7 42.6 34.9 35 61.2-1.6 5.6-5.6 13.5-8.1 16-.7.7-2.1 2.3-3.1 3.6-2.3 2.8-8.6 7.6-13.8 10.4-10.3 5.5-3.8 5.3-163.6 5.3-119.4 0-148.4.3-152.4 1.4-14.4 3.8-24.3 13.1-29.1 27.4-1.8 5.1-2.5 23.8-1.3 32.5.8 6.5 4.7 15.4 8.5 20 4.6 5.5 12.3 10.6 19.2 12.8 6.6 2 8.4 2 93.2 2.1 93.6.1 91.6 0 103 5.6 3 1.5 8.4 5.6 12 9.2 9.5 9.4 14.2 19.8 14.5 32.4.5 13.6-4.4 26.2-13.7 35.7-7.7 7.8-15.3 11.9-26.8 14.6-3.6.8-167.6.9-179 .1-11.5-.8-15.2-1.4-25.4-3.9-39.4-9.9-73.4-37.8-90.6-74.3-3.4-7.4-8.9-21.4-8.7-22.6 0-.3-.7-3.7-1.6-7.5-1-3.9-2.1-10.6-2.6-15-.9-8.7-.7-43.5.2-47.5.4-1.4.9-4.3 1.2-6.4.8-5.6 4.1-18.2 6.5-24.6 8.4-22.5 23.9-43.9 43-59.2 18.2-14.7 36.8-23.3 61-28.2l11.5-2.4 152.5-.1c135.4-.1 153.2 0 158.5 1.4zM245.9 470.9c21 6.4 35 25.2 34.9 47.1-.1 22.7-14.4 40.8-37.8 47.5-8.2 2.3-76.4 1.7-82.8-.8-8.9-3.5-14-6.7-19.4-12.2-14.3-14.2-18.6-33.5-11.7-52.1 5.5-14.6 17.8-25.6 33.4-29.8 7.9-2.1 8.8-2.1 45.4-1.9 28.3.1 31.9.4 38 2.2z"/>
</svg>
