<svg width="110" height="30" viewBox="0 0 242 66" version="1.1" xmlns="http://www.w3.org/2000/svg"
     xml:space="preserve"
     style="fill-rule:evenodd;clip-rule:evenodd;stroke-linejoin:round;stroke-miterlimit:1.41421;"><g><path d="M50.614,19.57l-27.202,0c-2.118,0 -3.842,1.724 -3.842,3.842l0,1.491c0,2.119 1.724,3.842 3.842,3.842l15.475,0c2.589,0 4.688,2.099 4.688,4.688c0,2.588 -2.099,4.687 -4.688,4.687l-15.475,0c-7.288,0 -13.217,-5.929 -13.217,-13.217l0,-1.491c0,-7.288 5.929,-13.217 13.217,-13.217l27.202,0c2.589,0 4.687,2.099 4.687,4.688c0,2.588 -2.098,4.687 -4.687,4.687Zm-28.404,33.875l-5.468,0c-2.588,0 -4.687,-2.099 -4.687,-4.688c0,-2.588 2.099,-4.687 4.687,-4.687l5.468,0c2.589,0 4.688,2.099 4.688,4.687c0,2.589 -2.099,4.688 -4.688,4.688Zm26.593,-53.445l-25.455,0c-12.895,0 -23.348,10.453 -23.348,23.348l0,22.012c0,10.987 8.907,19.894 19.894,19.894c6.66,0 13.004,-2.841 17.439,-7.809l24.786,-27.765c10.231,-11.494 2.072,-29.68 -13.316,-29.68Z" style="fill:#7f4284;fill-rule:nonzero;"/><path
        d="M79.052,13.571c0,-6.626 3.622,-8.437 8.526,-8.437c1.06,0 1.855,0.089 2.252,0.132c1.988,0.265 2.473,0.972 2.473,2.96l0,0.442c0,1.987 -0.485,2.209 -2.473,1.987c-0.397,-0.043 -0.839,-0.088 -1.811,-0.088c-1.943,0 -3.225,0.618 -3.225,2.518l0,2.297l4.594,0c1.988,0 2.474,0.485 2.474,2.474l0,0.485c0,1.988 -0.486,2.474 -2.474,2.474l-4.594,0l0,14.179c0,1.989 -0.485,2.474 -2.473,2.474l-0.795,0c-1.988,0 -2.474,-0.485 -2.474,-2.474l0,-21.423Z"
        style="fill:#7f4284;fill-rule:nonzero;"/><path
        d="M100.427,34.994c0,1.989 -0.486,2.474 -2.474,2.474l-0.839,0c-1.988,0 -2.474,-0.485 -2.474,-2.474l0,-12.103c0,-5.212 3.136,-8.039 9.188,-8.039c0.088,0 0.309,0 0.486,0c1.767,0 2.252,0.839 2.252,2.827l0,0.485c0,1.989 -0.441,2.254 -2.252,2.121c-0.088,0 -0.398,0 -0.486,0c-2.871,0 -3.401,1.06 -3.401,3.048l0,11.661Z"
        style="fill:#7f4284;fill-rule:nonzero;"/><path
        d="M123.969,24.658c0,-2.827 -0.751,-4.373 -4.727,-4.373c-3.975,0 -4.814,1.546 -4.814,4.373l0,3.534c0,2.827 0.839,4.373 4.814,4.373c3.976,0 4.727,-1.546 4.727,-4.373l0,-3.534Zm-15.328,3.534l0,-3.534c0,-6.317 3.711,-9.806 10.601,-9.806c7.245,0 10.513,3.269 10.513,9.806l0,3.534c0,6.317 -3.622,9.806 -10.513,9.806c-7.244,0 -10.601,-3.269 -10.601,-9.806Z"
        style="fill:#7f4284;fill-rule:nonzero;"/><path
        d="M139.257,34.994c0,1.989 -0.485,2.474 -2.473,2.474l-0.839,0c-1.989,0 -2.474,-0.485 -2.474,-2.474l0,-11.219c0,-5.787 3.401,-8.923 10.071,-8.923c6.979,0 9.983,3.004 9.983,8.923l0,11.219c0,1.989 -0.485,2.474 -2.474,2.474l-0.839,0c-1.988,0 -2.473,-0.485 -2.473,-2.474l0,-11.219c0,-2.253 -0.575,-3.49 -4.197,-3.49c-3.622,0 -4.285,1.237 -4.285,3.49l0,11.219Z"
        style="fill:#7f4284;fill-rule:nonzero;"/><path
        d="M175.584,9.021c0,-1.988 0.485,-2.473 2.474,-2.473l0.795,0c1.987,0 2.473,0.485 2.473,2.473l0,20.496c0,2.297 0.619,2.96 1.944,2.96c0.088,0 0.132,0 0.22,0c1.149,0 1.502,0.265 1.502,2.032l0,0.839c0,1.767 -0.353,2.253 -1.502,2.473c-0.22,0.045 -0.397,0.089 -1.325,0.089c-3.754,0 -6.581,-2.076 -6.581,-7.112l0,-21.777Z"
        style="fill:#7f4284;fill-rule:nonzero;"/><path
        d="M188.08,17.856c0,-1.989 0.486,-2.474 2.474,-2.474l0.795,0c1.988,0 2.474,0.485 2.474,2.474l0,17.138c0,1.989 -0.486,2.474 -2.474,2.474l-0.795,0c-1.988,0 -2.474,-0.485 -2.474,-2.474l0,-17.138Zm2.871,-12.545c1.9,0 3.446,1.59 3.446,3.445c0,1.856 -1.546,3.446 -3.446,3.446c-1.899,0 -3.445,-1.547 -3.445,-3.446c0,-1.9 1.546,-3.445 3.445,-3.445Z"
        style="fill:#7f4284;fill-rule:nonzero;"/><path
        d="M203.924,34.994c0,1.989 -0.486,2.474 -2.474,2.474l-0.839,0c-1.988,0 -2.473,-0.485 -2.473,-2.474l0,-11.219c0,-5.787 3.401,-8.923 10.071,-8.923c6.979,0 9.983,3.004 9.983,8.923l0,11.219c0,1.989 -0.486,2.474 -2.474,2.474l-0.839,0c-1.988,0 -2.474,-0.485 -2.474,-2.474l0,-11.219c0,-2.253 -0.574,-3.49 -4.196,-3.49c-3.622,0 -4.285,1.237 -4.285,3.49l0,11.219Z"
        style="fill:#7f4284;fill-rule:nonzero;"/><path
        d="M227.693,23.863l8.703,0l0,-0.663c0,-2.209 -1.459,-3.357 -4.374,-3.357c-2.915,0 -4.329,1.148 -4.329,3.357l0,0.663Zm14.092,2.253c-0.265,2.032 -0.84,2.429 -2.872,2.429l-11.22,0l0,0.663c0,2.297 1.679,3.357 5.787,3.357c2.297,0 4.506,-0.442 5.345,-0.618c1.943,-0.398 2.341,0.132 2.341,2.12l0,0.486c0,1.988 -0.398,2.385 -2.341,2.871c-0.839,0.221 -2.916,0.574 -5.389,0.574c-7.82,0 -11.529,-2.827 -11.529,-9.674l0,-3.534c0,-5.698 2.605,-9.938 10.292,-9.938c6.449,0 9.674,3.269 9.674,9.541c0,0.353 0,0.928 -0.088,1.723Z"
        style="fill:#7f4284;fill-rule:nonzero;"/><path
        d="M170.257,32.256c-0.442,0.088 -1.546,0.265 -3.092,0.265c-1.679,0 -2.784,-0.751 -2.784,-2.96l0,-8.746l5.036,0c1.988,0 2.474,-0.486 2.474,-2.474l0,-0.485c0,-1.989 -0.486,-2.474 -2.474,-2.474l-5.036,0l0,-3.445c0,-1.856 -0.441,-2.297 -2.296,-2.297l-0.997,0l-0.152,0c-1.855,0 -2.297,0.441 -2.297,2.297l0,17.58c0,6.449 3.622,8.437 8.526,8.437c1.546,0 2.517,-0.133 3.092,-0.265c1.943,-0.398 2.429,-1.148 2.429,-3.136l0,-0.486c0,-1.988 -0.486,-2.165 -2.429,-1.811Z"
        style="fill:#7f4284;fill-rule:nonzero;"/><path
        d="M80.88,52.252l6.58,0l0,-0.804c0,-2.12 -1.267,-2.973 -3.29,-2.973c-2.071,0 -3.29,0.853 -3.29,2.973l0,0.804Zm8.238,0.78c-0.074,0.634 -0.244,0.756 -0.878,0.756l-7.36,0l0,0.731c0,2.242 1.145,3.095 3.802,3.095c1.462,0 2.778,-0.317 3.314,-0.463c0.61,-0.171 0.78,0.025 0.78,0.634l0,0.219c0,0.463 -0.073,0.682 -0.755,0.878c-0.756,0.219 -1.877,0.463 -3.339,0.463c-3.753,0 -5.63,-1.439 -5.63,-5.094l0,-2.267c0,-2.949 1.243,-5.142 5.142,-5.142c3.193,0 4.997,1.609 4.997,4.874c0,0.487 -0.025,0.999 -0.073,1.316Z"
        style="fill:#7f4284;fill-rule:nonzero;"/><path
        d="M93.409,54.226c0,2.194 0.683,3.388 3.51,3.388c2.803,0 3.509,-1.194 3.509,-3.388l0,-2.266c0,-2.218 -0.706,-3.388 -3.509,-3.388c-2.803,0 -3.51,1.17 -3.51,3.388l0,2.266Zm8.848,0.025c0,3.315 -1.755,5.094 -5.338,5.094c-3.753,0 -5.337,-1.779 -5.337,-5.094l0,-2.267c0,-3.143 1.389,-5.142 5.045,-5.142c2.046,0 3.192,0.682 3.801,1.779l0,-5.8c0,-0.634 0.147,-0.78 0.78,-0.78l0.269,0c0.633,0 0.78,0.146 0.78,0.78l0,11.43Z"
        style="fill:#7f4284;fill-rule:nonzero;"/><path
        d="M106.671,54.787c0,1.803 0.658,2.827 3.266,2.827c2.608,0 3.241,-1.024 3.241,-2.827l0,-6.922c0,-0.633 0.147,-0.779 0.78,-0.779l0.268,0c0.634,0 0.78,0.146 0.78,0.779l0,6.922c0,2.827 -1.341,4.558 -5.069,4.558c-3.656,0 -5.094,-1.755 -5.094,-4.558l0,-6.922c0,-0.633 0.147,-0.779 0.78,-0.779l0.268,0c0.634,0 0.78,0.146 0.78,0.779l0,6.922Z"
        style="fill:#7f4284;fill-rule:nonzero;"/><path
        d="M117.495,51.887c0,-3.046 1.584,-5.045 5.435,-5.045c1.097,0 1.852,0.219 2.144,0.317c0.61,0.195 0.732,0.39 0.732,0.926l0,0.243c0,0.61 -0.146,0.78 -0.732,0.586c-0.463,-0.171 -1.193,-0.342 -2.095,-0.342c-2.852,0 -3.656,1.17 -3.656,3.339l0,2.364c0,2.511 1.146,3.339 3.802,3.339c0.95,0 1.755,-0.171 2.193,-0.317c0.585,-0.194 0.732,0 0.732,0.609l0,0.244c0,0.536 -0.196,0.707 -0.78,0.878c-0.39,0.121 -1.292,0.317 -2.267,0.317c-3.753,0 -5.508,-1.609 -5.508,-5.045l0,-2.413Z"
        style="fill:#7f4284;fill-rule:nonzero;"/><path
        d="M135.24,53.568l-2.852,0c-2.12,0 -3.168,0.537 -3.168,2.121c0,1.657 1.316,2.071 2.73,2.071c2.047,0 3.29,-0.39 3.29,-2.339l0,-1.853Zm1.828,1.926c0,2.729 -1.609,3.851 -5.094,3.851c-2.608,0 -4.582,-1 -4.582,-3.656c0,-2.608 1.779,-3.559 4.972,-3.559l2.876,0l0,-1.462c0,-1.754 -1.267,-2.217 -3.193,-2.217c-1.17,0 -2.291,0.17 -2.681,0.267c-0.584,0.147 -0.78,-0.024 -0.78,-0.609l0,-0.195c0,-0.585 0.171,-0.707 0.732,-0.828c0.365,-0.074 1.243,-0.244 2.632,-0.244c2.998,0 5.118,0.926 5.118,3.826l0,4.826Z"
        style="fill:#7f4284;fill-rule:nonzero;"/><path
        d="M149.16,47.865c0,-0.633 0.146,-0.779 0.78,-0.779l0.267,0c0.634,0 0.78,0.146 0.78,0.779l0,10.456c0,0.634 -0.146,0.78 -0.78,0.78l-0.267,0c-0.634,0 -0.78,-0.146 -0.78,-0.78l0,-10.456Zm0.926,-5.727c0.658,0 1.17,0.536 1.17,1.194c0,0.634 -0.512,1.17 -1.17,1.17c-0.683,0 -1.219,-0.512 -1.219,-1.17c0,-0.658 0.536,-1.194 1.219,-1.194Z"
        style="fill:#7f4284;fill-rule:nonzero;"/><path
        d="M162.76,51.96c0,-2.218 -0.707,-3.388 -3.485,-3.388c-2.803,0 -3.534,1.17 -3.534,3.388l0,2.266c0,2.194 0.731,3.388 3.534,3.388c2.778,0 3.485,-1.194 3.485,-3.388l0,-2.266Zm-8.847,2.266l0,-2.266c0,-3.168 1.511,-5.118 5.362,-5.118c3.899,0 5.313,1.901 5.313,5.118l0,2.266c0,3.169 -1.487,5.119 -5.313,5.119c-3.924,0 -5.362,-1.902 -5.362,-5.119Z"
        style="fill:#7f4284;fill-rule:nonzero;"/><path
        d="M169.051,58.321c0,0.634 -0.146,0.78 -0.78,0.78l-0.268,0c-0.634,0 -0.78,-0.146 -0.78,-0.78l0,-6.922c0,-2.802 1.413,-4.557 5.094,-4.557c3.728,0 5.069,1.73 5.069,4.557l0,6.922c0,0.634 -0.146,0.78 -0.78,0.78l-0.292,0c-0.634,0 -0.78,-0.146 -0.78,-0.78l0,-6.922c0,-1.803 -0.609,-2.827 -3.217,-2.827c-2.608,0 -3.266,1.024 -3.266,2.827l0,6.922Z"
        style="fill:#7f4284;fill-rule:nonzero;"/><path
        d="M146.232,57.346c-0.438,0.122 -1.34,0.244 -2.168,0.244c-1.341,0 -2.243,-0.585 -2.243,-2.584l0,-6.19l3.948,0c0.61,0 0.756,-0.146 0.756,-0.755l0,-0.22c0,-0.609 -0.146,-0.755 -0.756,-0.755l-3.948,0l0,-2.511c0,-0.536 -0.122,-0.658 -0.658,-0.658l-0.17,0l-0.341,0c-0.537,0 -0.659,0.122 -0.659,0.658l0,10.431c0,3.217 1.706,4.314 4.095,4.314c1.097,0 1.731,-0.146 2.12,-0.244c0.634,-0.17 0.756,-0.414 0.756,-0.877l0,-0.219c0,-0.61 -0.171,-0.78 -0.732,-0.634Z"
        style="fill:#7f4284;fill-rule:nonzero;"/><path
        d="M188.127,58.825c0,0.225 -0.052,0.276 -0.276,0.276l-0.071,0c-0.224,0 -0.275,-0.051 -0.275,-0.276l0,-3.089l-0.918,2.916c-0.071,0.214 -0.173,0.326 -0.418,0.326c-0.234,0 -0.347,-0.081 -0.428,-0.326l-0.959,-2.916l0,3.089c0,0.225 -0.051,0.276 -0.275,0.276l-0.061,0c-0.225,0 -0.275,-0.051 -0.275,-0.276l0,-3.252c0,-0.296 0.122,-0.428 0.397,-0.428l0.214,0c0.367,0 0.5,0.316 0.612,0.672l0.785,2.458l0.846,-2.712c0.102,-0.316 0.245,-0.418 0.592,-0.418l0.112,0c0.275,0 0.398,0.132 0.398,0.428l0,3.252Zm-4.711,-3.364c0,0.193 -0.051,0.245 -0.244,0.245l-1.041,0l0,3.119c0,0.225 -0.051,0.276 -0.275,0.276l-0.071,0c-0.225,0 -0.275,-0.051 -0.275,-0.276l0,-3.119l-1.041,0c-0.193,0 -0.244,-0.052 -0.244,-0.245l0,-0.072c0,-0.194 0.051,-0.244 0.244,-0.244l2.703,0c0.193,0 0.244,0.05 0.244,0.244l0,0.072Z"
        style="fill:#7f4284;fill-rule:nonzero;"/></g></svg>
